<?xml version="1.0" standalone="no"?>
<!DOCTYPE svg PUBLIC "-//W3C//DTD SVG 20010904//EN"
 "http://www.w3.org/TR/2001/REC-SVG-20010904/DTD/svg10.dtd">
<svg version="1.0" xmlns="http://www.w3.org/2000/svg"
 width="204.000000pt" height="192.000000pt" viewBox="0 0 204.000000 192.000000"
 preserveAspectRatio="xMidYMid meet">

<g transform="translate(0.000000,192.000000) scale(0.100000,-0.100000)"
fill="#000000" stroke="none">
<path d="M0 960 l0 -960 1020 0 1020 0 0 960 0 960 -1020 0 -1020 0 0 -960z
m1048 603 c2 -13 -2 -23 -8 -23 -16 0 -4 -62 21 -112 26 -51 55 -50 110 2 33
31 40 44 35 63 -8 35 19 57 42 33 16 -16 16 -18 -6 -35 -15 -11 -25 -31 -29
-59 -9 -68 28 -93 80 -52 39 31 40 24 3 -25 -19 -24 -37 -54 -41 -65 -6 -19
-14 -20 -230 -20 l-223 0 -41 61 c-23 34 -41 63 -41 66 0 2 12 -5 26 -16 32
-25 69 -27 78 -5 15 38 2 114 -20 114 -21 0 -27 21 -11 38 13 13 19 13 32 2 8
-7 13 -20 10 -30 -3 -9 7 -34 25 -58 52 -72 106 -66 134 15 18 53 20 83 6 83
-11 0 -14 33 -3 44 15 15 48 1 51 -21z m-330 -130 c5 -17 -26 -29 -40 -15 -6
6 -7 15 -3 22 9 14 37 9 43 -7z m648 6 c9 -16 -12 -33 -31 -25 -14 5 -15 9 -5
21 15 18 26 19 36 4z m-558 -296 c1 -51 6 -93 10 -93 5 0 24 17 44 38 32 32
37 44 40 92 l3 55 45 0 45 0 3 -73 3 -72 -62 -59 -62 -58 62 -62 61 -61 -2
-177 -3 -177 -47 59 -48 60 0 100 0 101 -45 44 -45 44 0 -84 0 -85 -21 25
c-11 14 -33 43 -50 64 l-29 39 0 182 c0 100 3 185 7 189 4 4 25 6 48 4 l40 -3
3 -92z m510 89 c7 -2 12 -22 12 -48 l0 -44 -50 0 -50 0 0 -204 0 -203 -42 -56
c-24 -31 -46 -57 -50 -57 -5 0 -8 117 -8 260 l0 260 -45 0 -45 0 0 44 c0 26 5
46 13 49 15 6 248 5 265 -1z"/>
</g>
</svg>
